<?xml version="1.0" encoding="utf-8"?>
<!-- Generator: Adobe Illustrator 15.1.0, SVG Export Plug-In  -->
<!DOCTYPE svg PUBLIC "-//W3C//DTD SVG 1.1//EN" "http://www.w3.org/Graphics/SVG/1.1/DTD/svg11.dtd" [
	<!ENTITY ns_flows "http://ns.adobe.com/Flows/1.0/">
]>
<svg version="1.1"
	 xmlns="http://www.w3.org/2000/svg" xmlns:xlink="http://www.w3.org/1999/xlink" xmlns:a="http://ns.adobe.com/AdobeSVGViewerExtensions/3.0/"
	 x="0px" y="0px" width="15px" height="15px" viewBox="0 0 15 15" enable-background="new 0 0 15 15" xml:space="preserve">
<defs>
</defs>
<path fill="#C3C3C2" d="M14.854,13.561c-0.096-0.064-1.837-1.209-4.428-1.77c0.95-1.209,1.561-2.83,1.819-3.91
	c0.36-1.498,0.221-4.426-1.214-6.251C10.194,0.563,9.021,0,7.64,0S5.086,0.563,4.248,1.63C2.813,3.455,2.674,6.384,3.033,7.881
	c0.26,1.08,0.869,2.701,1.819,3.91c-2.59,0.561-4.331,1.705-4.427,1.77c-0.351,0.232-0.507,0.67-0.385,1.072
	c0.122,0.404,0.493,0.68,0.914,0.68h13.37c0.42,0,0.792-0.275,0.913-0.68C15.36,14.231,15.205,13.793,14.854,13.561z M9.677,11.198
	l-0.156,0.197c-1.139,1.313-2.623,1.313-3.762,0l-0.156-0.197c-1.33-1.689-1.989-3.922-1.705-6.054
	c0.26-2.048,1.432-4.187,3.742-4.187c2.312,0,3.482,2.139,3.743,4.187C11.665,7.276,11.008,9.508,9.677,11.198z M0.955,14.358
	c0.066-0.045,1.684-1.107,4.1-1.631l1.187-0.258c0.423,0.279,0.888,0.451,1.398,0.451c0.512,0,0.977-0.172,1.399-0.451l1.187,0.258
	c2.396,0.518,4.009,1.57,4.1,1.631H0.955z"/>
</svg>
