<?xml version="1.0" encoding="utf-8"?>
<!-- Generator: Adobe Illustrator 15.1.0, SVG Export Plug-In  -->
<!DOCTYPE svg PUBLIC "-//W3C//DTD SVG 1.1//EN" "http://www.w3.org/Graphics/SVG/1.1/DTD/svg11.dtd" [
	<!ENTITY ns_flows "http://ns.adobe.com/Flows/1.0/">
]>
<svg version="1.1"
	 xmlns="http://www.w3.org/2000/svg" xmlns:xlink="http://www.w3.org/1999/xlink" xmlns:a="http://ns.adobe.com/AdobeSVGViewerExtensions/3.0/"
	 x="0px" y="0px" width="2151px" height="240px" viewBox="-771.764 0 2151 240" enable-background="new -771.764 0 2151 240"
	 xml:space="preserve">
<defs>
</defs>
<path fill="#B0AEAF" d="M1.378,240.333l66.359-70.443l0.199-0.171c10.396-14.081,28.84-24.846,50.711-29.35c0.085,0,0.085,0,0.199,0
	c0.084,0,0.198,0,0.198,0c2.889-0.595,6.091-1.076,9.773-1.586l2.408-0.285c0.595-0.113,1.076-0.113,1.7-0.113
	c-20.568,5.299-37.936,15.866-48.02,29.577l-68.241,72.371h1.39l67.445-71.52l0.199-0.171
	c10.793-14.676,29.944-25.753,52.609-30.455c0.084,0,0.084,0,0.198,0c0.085,0,0.197,0,0.197,0c0.198,0,0.51-0.085,0.681-0.085
	c0.906,0,1.898-0.114,2.805-0.114c3.087,0,6.289,0.114,9.49,0.285c0.199,0,0.482,0,0.681,0.111c0.226,0,0.51,0.113,0.707,0.113
	c3.287,0.285,5.78,0.596,8.074,0.88c0.114,0,0.114,0,0.228,0c0.085,0,0.17,0,0.17,0c18.074,2.805,34.647,9.773,46.631,19.574
	l94.038,81.381h1.473l-93.923-81.182l-0.907-0.792l-0.198-0.199h-0.085c-12.098-9.887-28.756-16.886-47.028-19.662
	c-0.085,0-0.085,0-0.17,0c-0.113,0-0.228,0-0.228,0c-2.294-0.396-4.787-0.706-8.158-0.905c-0.198,0-0.51,0-0.709-0.114
	c-0.312,0-0.51-0.085-0.793-0.085c-2.096-0.196-4.193-0.196-6.289-0.311c1.105-0.199,2.295-0.284,3.484-0.481l2.493-0.313
	c4.192-0.396,7.876-0.596,11.276-0.596c3.2,0,6.486,0.086,9.773,0.313c0.312,0,0.51,0,0.821,0.085c0.284,0,0.481,0.111,0.794,0.111
	c3.399,0.285,5.977,0.596,8.386,0.994c0.084,0,0.084,0,0.198,0c0.085,0,0.197,0,0.283,0c18.782,2.888,35.923,10.082,48.303,20.255
	l95.678,82.881h1.563l-95.541-82.683l-0.907-0.907l-0.198-0.197h-0.085c-12.578-10.286-29.831-17.452-48.699-20.343
	c-0.113,0-0.113,0-0.199,0c-0.112,0-0.197,0-0.312,0c-2.379-0.424-4.986-0.706-8.47-1.02c-0.198,0-0.51,0-0.709-0.085
	c-0.283,0-0.481-0.111-0.793-0.111c-3.4-0.284-6.687-0.398-9.887-0.284c-3.485,0-7.168,0.198-11.36,0.595l-2.493,0.284
	c-3.712,0.425-6.886,0.906-9.69,1.501c-2.493,0.114-5.099,0.311-7.875,0.51l-2.408,0.282c-3.796,0.51-6.97,1.021-9.888,1.614
	c-0.085,0-0.085,0-0.197,0c-0.086,0-0.199,0-0.199,0c-22.04,4.591-40.71,15.356-51.193,29.606L0,240.333H1.378z"/>
<path fill="#B0AEAF" d="M449.189,240.333L651.713,58.749c0.113-0.199,0.34-0.312,0.566-0.397c0.17-0.198,0.34-0.312,0.453-0.51
	c0.34-0.283,0.51-0.481,0.793-0.68c0.34-0.198,0.511-0.51,0.794-0.708c0.453-0.397,0.906-0.793,1.359-1.19
	c0.963-0.906,2.039-1.898,3.173-2.805l0.114-0.084c0.169-0.114,0.34-0.312,0.452-0.397c0.341-0.227,0.51-0.424,0.681-0.624
	c2.833-2.294,5.893-4.589,9.122-6.884c0.283-0.198,0.624-0.397,0.907-0.68c0.396-0.311,0.793-0.594,1.188-0.906
	c8.5-5.695,17.849-10.794,28.048-15.27c0.057,0,0.17-0.114,0.284-0.114c0.112,0,0.226-0.085,0.339-0.085
	c4.419-2.01,9.406-3.881,14.619-5.694c0.679-0.283,1.473-0.481,2.21-0.68c0.51-0.227,0.962-0.312,1.529-0.51
	c3.966-1.303,8.159-2.607,12.578-3.796c1.7-0.397,3.344-0.907,5.043-1.304c3.796-0.877,7.763-1.784,12.296-2.577l0.566-0.114
	c1.7-0.283,3.4-0.708,5.099-0.991c3.91-0.595,8.16-1.19,12.977-1.813c0.623-0.084,1.19-0.198,1.869-0.198
	c0.736-0.085,1.474-0.198,2.153-0.283c-3.91,1.105-7.706,2.181-11.332,3.4c-0.453,0.198-0.963,0.283-1.474,0.481
	c-0.793,0.198-1.586,0.51-2.266,0.793c-5.439,1.898-10.596,3.91-15.3,5.893c-0.112,0-0.226,0.114-0.281,0.114
	c-0.114,0-0.171,0.084-0.284,0.084c-10.596,4.59-20.397,10-29.124,15.865c-0.453,0.312-0.907,0.624-1.359,0.907
	c-0.284,0.198-0.567,0.51-0.907,0.708c-3.398,2.38-6.572,4.788-9.405,7.168c-0.227,0.198-0.566,0.424-0.736,0.51
	c-0.283,0.198-0.51,0.396-0.793,0.595l-0.171,0.198c-1.134,0.907-2.153,1.898-3.173,2.805c-0.34,0.396-0.85,0.793-1.246,1.19
	c-0.341,0.198-0.51,0.51-0.794,0.708c-0.34,0.283-0.623,0.481-0.906,0.793c-0.113,0.085-0.339,0.312-0.51,0.397
	c-0.17,0.198-0.396,0.312-0.624,0.51l-209.4,187.76h1.583L691.036,53.252c0.226-0.198,0.339-0.283,0.565-0.481
	c0.17-0.198,0.34-0.312,0.454-0.51c0.34-0.283,0.623-0.51,0.906-0.793c0.339-0.198,0.566-0.51,0.793-0.709
	c0.396-0.396,0.907-0.793,1.303-1.189c1.077-0.992,2.21-2.012,3.286-2.89l0.114-0.113c0.17-0.085,0.396-0.283,0.623-0.397
	c0.283-0.198,0.453-0.397,0.793-0.595c2.834-2.379,6.063-4.788,9.463-7.082c0.283-0.199,0.622-0.511,0.907-0.709
	c0.396-0.283,0.793-0.595,1.188-0.878c8.783-5.893,18.585-11.19,29.011-15.779c0.112,0,0.227-0.085,0.341-0.085
	c0.112,0,0.169-0.113,0.283-0.113c4.702-1.983,9.801-3.995,15.127-5.893c0.851-0.283,1.531-0.481,2.324-0.793
	c0.51-0.199,1.02-0.312,1.529-0.51c4.08-1.388,8.499-2.692,13.032-3.881c1.529-0.397,2.946-0.708,4.42-1.106
	c4.872-0.396,9.462-0.594,13.938-0.793c5.553-0.084,11.218-0.084,17.281,0.114c1.699,0.085,3.343,0.198,4.986,0.283
	c0.85,0.113,1.699,0.113,2.549,0.198l2.267,0.114c2.267,0.084,4.59,0.283,6.8,0.481c3.456,0.312,6.97,0.793,10.256,1.303
	c0.623,0.114,1.303,0.199,1.869,0.199c1.247,0.198,2.493,0.312,3.74,0.51c3.684,0.595,7.593,1.303,12.125,2.295
	c0.454,0.084,0.793,0.198,1.359,0.283c0.567,0.113,1.021,0.198,1.588,0.311c4.646,1.105,9.291,2.183,13.541,3.485l0.793,0.198
	c14.223,4.107,27.368,9.377,39.323,15.865l0.17,0.114h0.113l2.38,1.303c0.566,0.284,1.02,0.595,1.53,0.878
	c0.962,0.51,1.869,1.105,2.889,1.615l364.023,202.833h2.034L917.564,36.708c-0.85-0.624-1.813-1.105-2.833-1.615
	c-0.51-0.283-1.02-0.595-1.529-0.907l-2.664-1.474h-0.112c-12.012-6.403-25.157-11.785-39.323-15.78l-0.793-0.198
	c-4.306-1.19-8.896-2.38-13.598-3.485c-0.567-0.113-1.077-0.198-1.7-0.312c-0.341-0.084-0.793-0.198-1.134-0.284
	c-4.76-1.02-8.612-1.699-12.352-2.294c-1.133-0.199-2.494-0.425-3.626-0.51c-0.624-0.114-1.359-0.199-1.927-0.199
	c-3.399-0.51-6.8-0.991-10.312-1.303c-2.267-0.198-4.533-0.397-6.857-0.481l-2.322-0.114c-0.794-0.085-1.7-0.085-2.493-0.198
	c-1.587-0.114-3.287-0.199-4.986-0.312c-6.063-0.198-11.785-0.198-17.226-0.085c-2.605,0.085-5.212,0.198-7.932,0.283
	c2.437-0.481,4.929-0.991,7.479-1.474l0.34-0.112c1.813-0.284,3.513-0.709,5.326-0.992c4.079-0.708,8.441-1.303,13.428-1.897
	c0.624-0.114,1.304-0.199,1.871-0.199c1.246-0.198,2.492-0.312,3.853-0.396c6.969-0.709,13.372-1.105,19.491-1.219
	c5.723-0.085,11.615-0.085,17.904,0.114c1.7,0.113,3.514,0.198,5.214,0.311c0.905,0.085,1.699,0.085,2.605,0.199l2.38,0.084
	c2.267,0.114,4.76,0.312,7.025,0.511c3.626,0.396,7.253,0.877,10.709,1.303c0.736,0.084,1.304,0.198,1.983,0.284
	c1.304,0.198,2.606,0.312,3.854,0.51c3.739,0.595,7.705,1.388,12.636,2.379c0.396,0.114,0.905,0.199,1.303,0.312
	c0.566,0.085,1.076,0.198,1.699,0.397c4.873,1.105,9.575,2.295,14.052,3.598l0.793,0.198c14.677,4.193,28.331,9.774,40.74,16.375
	l0.169,0.085h0.114l2.379,1.388c0.511,0.312,1.134,0.624,1.587,0.907c1.02,0.595,2.039,1.104,3.061,1.7l374.263,208.526h2.047
	L966.18,30.814c-0.963-0.595-1.982-1.105-2.946-1.7c-0.51-0.312-1.133-0.595-1.586-0.906l-2.833-1.587H958.7
	c-12.352-6.686-26.12-12.182-40.682-16.375l-0.794-0.198c-4.419-1.304-9.179-2.493-14.052-3.598
	c-0.623-0.085-1.246-0.199-1.699-0.397c-0.453-0.085-0.907-0.198-1.36-0.283c-4.759-1.02-8.839-1.813-12.636-2.408
	c-1.303-0.198-2.605-0.396-3.909-0.51c-0.68-0.085-1.303-0.198-1.982-0.283c-3.514-0.51-7.083-0.992-10.71-1.303
	c-2.379-0.199-4.759-0.397-7.025-0.511l-2.437-0.084c-0.85-0.114-1.7-0.114-2.55-0.199c-1.7-0.113-3.4-0.311-5.213-0.311
	c-6.402-0.199-12.182-0.199-18.018-0.085c-6.119,0.198-12.636,0.595-19.605,1.19c-1.303,0.113-2.492,0.311-3.796,0.51
	c-0.623,0.084-1.303,0.198-1.869,0.198c-4.986,0.595-9.406,1.19-13.485,1.898c-1.813,0.283-3.627,0.595-5.439,0.991l-0.566,0.085
	c-4.59,0.907-8.783,1.814-12.806,2.72c-0.283,0.085-0.681,0.199-0.964,0.283c-1.529,0.114-3.003,0.312-4.589,0.397
	c-1.247,0.113-2.38,0.312-3.74,0.396c-0.566,0.114-1.133,0.199-1.869,0.199c-4.816,0.595-9.066,1.105-12.977,1.813
	c-1.698,0.284-3.398,0.595-5.212,0.992l-0.566,0.084c-4.477,0.821-8.499,1.7-12.239,2.607c-1.7,0.397-3.399,0.907-5.099,1.303
	c-4.421,1.19-8.727,2.493-12.692,3.797c-0.51,0.198-1.02,0.283-1.36,0.481c-0.736,0.198-1.529,0.51-2.267,0.708
	c-5.155,1.786-10.142,3.684-14.731,5.695c-0.112,0-0.227,0.085-0.34,0.085c-0.057,0-0.17,0.113-0.227,0.113
	c-10.199,4.476-19.718,9.576-28.217,15.27c-0.34,0.283-0.793,0.595-1.133,0.878c-0.341,0.198-0.624,0.425-0.907,0.709
	c-3.286,2.294-6.402,4.589-9.179,6.884c-0.227,0.198-0.453,0.312-0.736,0.51c-0.283,0.198-0.511,0.397-0.681,0.595l-0.17,0.198
	c-1.021,0.907-2.153,1.786-3.06,2.692c-0.34,0.396-0.793,0.793-1.247,1.189c-0.227,0.199-0.51,0.51-0.793,0.709
	c-0.34,0.312-0.623,0.51-0.907,0.793c-0.112,0.113-0.339,0.312-0.51,0.396c-0.169,0.199-0.396,0.312-0.51,0.511L447.718,240.333
	H449.189z"/>
</svg>
