<?xml version="1.0" encoding="utf-8"?>
<!-- Generator: Adobe Illustrator 15.1.0, SVG Export Plug-In  -->
<!DOCTYPE svg PUBLIC "-//W3C//DTD SVG 1.1//EN" "http://www.w3.org/Graphics/SVG/1.1/DTD/svg11.dtd" [
	<!ENTITY ns_flows "http://ns.adobe.com/Flows/1.0/">
]>
<svg version="1.1"
	 xmlns="http://www.w3.org/2000/svg" xmlns:xlink="http://www.w3.org/1999/xlink" xmlns:a="http://ns.adobe.com/AdobeSVGViewerExtensions/3.0/"
	 x="0px" y="0px" width="15px" height="15px" viewBox="0 0 15 15" enable-background="new 0 0 15 15" xml:space="preserve">
<defs>
</defs>
<g>
	<g>
		<path fill="#C3C3C2" d="M13.742,1.409h-2.03V0.469C11.712,0.21,11.502,0,11.243,0s-0.469,0.21-0.469,0.469v0.939H7.964V0.469
			C7.964,0.21,7.754,0,7.495,0S7.026,0.21,7.026,0.469v0.939H4.216V0.469C4.216,0.21,4.006,0,3.747,0
			C3.489,0,3.279,0.21,3.279,0.469v0.939h-2.03C0.559,1.409,0,1.969,0,2.661v11.113c0,0.691,0.559,1.252,1.249,1.252h12.493
			c0.689,0,1.249-0.561,1.249-1.252V2.661C14.991,1.969,14.432,1.409,13.742,1.409z M14.055,13.774c0,0.173-0.141,0.313-0.313,0.313
			H1.249c-0.173,0-0.313-0.141-0.313-0.313V2.661c0-0.173,0.14-0.313,0.313-0.313h2.03v0.939c0,0.259,0.21,0.47,0.468,0.47
			c0.259,0,0.469-0.21,0.469-0.47V2.348h2.811v0.939c0,0.259,0.21,0.47,0.469,0.47s0.469-0.21,0.469-0.47V2.348h2.811v0.939
			c0,0.259,0.21,0.47,0.469,0.47s0.469-0.21,0.469-0.47V2.348h2.03c0.172,0,0.313,0.14,0.313,0.313V13.774z M3.279,7.043h1.874
			V5.635H3.279V7.043z M3.279,9.391h1.874V7.983H3.279V9.391z M3.279,11.739h1.874v-1.408H3.279V11.739z M6.559,11.739h1.874v-1.408
			H6.559V11.739z M6.559,9.391h1.874V7.983H6.559V9.391z M6.559,7.043h1.874V5.635H6.559V7.043z M9.838,11.739h1.874v-1.408H9.838
			V11.739z M9.838,9.391h1.874V7.983H9.838V9.391z M9.838,7.043h1.874V5.635H9.838V7.043z"/>
	</g>
</g>
</svg>
