<?xml version="1.0" encoding="utf-8"?>
<!-- Generator: Adobe Illustrator 15.1.0, SVG Export Plug-In  -->
<!DOCTYPE svg PUBLIC "-//W3C//DTD SVG 1.1//EN" "http://www.w3.org/Graphics/SVG/1.1/DTD/svg11.dtd" [
	<!ENTITY ns_flows "http://ns.adobe.com/Flows/1.0/">
]>
<svg version="1.1"
	 xmlns="http://www.w3.org/2000/svg" xmlns:xlink="http://www.w3.org/1999/xlink" xmlns:a="http://ns.adobe.com/AdobeSVGViewerExtensions/3.0/"
	 x="0px" y="0px" width="43px" height="43px" viewBox="0 0 43 43" enable-background="new 0 0 43 43" xml:space="preserve">
<defs>
</defs>
<path fill="#245378" d="M28.921,14.964L28.921,14.964l1.111-1.667l-1.006-0.581l-0.972,1.748l-5.195-3
	c-0.203-0.117-1.226,0.122-1.394,0.414L12.3,27.754c-0.169,0.292-0.018,0.695,0.187,0.813l6.81,3.932
	c0.204,0.118,0.629,0.047,0.798-0.245l9.192-15.923C29.455,16.038,29.124,15.081,28.921,14.964z M15.059,27.936l-0.92-0.531
	c-0.203-0.117-0.231-0.449-0.063-0.742c0.169-0.292,0.471-0.434,0.674-0.316l0.92,0.531c0.203,0.117,0.231,0.449,0.063,0.742
	C15.564,27.911,15.263,28.053,15.059,27.936z M16.128,26.084l-0.92-0.532c-0.203-0.117-0.231-0.449-0.063-0.741
	c0.169-0.293,0.471-0.435,0.674-0.316l0.92,0.531c0.203,0.117,0.231,0.449,0.063,0.741S16.332,26.201,16.128,26.084z M17.197,24.231
	l-0.92-0.532c-0.203-0.117-0.231-0.449-0.063-0.741s0.471-0.435,0.674-0.316l0.92,0.531c0.203,0.117,0.231,0.45,0.063,0.741
	C17.702,24.207,17.401,24.349,17.197,24.231z M17.268,29.211l-0.92-0.531c-0.203-0.117-0.231-0.449-0.063-0.742
	c0.169-0.292,0.47-0.434,0.674-0.316l0.92,0.531c0.203,0.117,0.231,0.449,0.063,0.742C17.772,29.187,17.471,29.328,17.268,29.211z
	 M18.337,27.358l-0.92-0.531c-0.203-0.117-0.231-0.449-0.063-0.741c0.168-0.293,0.47-0.435,0.674-0.316l0.92,0.531
	c0.203,0.117,0.231,0.449,0.063,0.741S18.54,27.477,18.337,27.358z M19.406,25.506l-0.92-0.531
	c-0.203-0.117-0.231-0.449-0.063-0.741c0.168-0.292,0.47-0.435,0.673-0.316l0.921,0.531c0.203,0.117,0.231,0.449,0.063,0.741
	C19.911,25.482,19.609,25.624,19.406,25.506z M19.477,30.486l-0.92-0.531c-0.204-0.118-0.231-0.45-0.063-0.742
	c0.168-0.293,0.47-0.434,0.673-0.316l0.921,0.531c0.203,0.117,0.23,0.449,0.063,0.742C19.981,30.461,19.68,30.604,19.477,30.486z
	 M20.546,28.634l-0.92-0.531c-0.204-0.118-0.231-0.45-0.063-0.741c0.169-0.293,0.471-0.435,0.674-0.317l0.921,0.531
	c0.203,0.118,0.231,0.45,0.063,0.742S20.749,28.751,20.546,28.634z M21.615,26.781l-0.92-0.531
	c-0.204-0.117-0.231-0.449-0.063-0.741c0.169-0.292,0.471-0.435,0.674-0.317l0.921,0.532c0.203,0.117,0.231,0.449,0.063,0.741
	C22.12,26.758,21.818,26.898,21.615,26.781z M23.421,24.488C23.253,24.781,23.625,24.606,23.421,24.488l-6.062-3.499
	c-0.203-0.117-0.168,0.292,0,0l4.5-7.793c0.169-0.292-0.203-0.118,0,0l6.062,3.5c-0.083-0.012,0.169-0.292,0,0L23.421,24.488z"/>
<path fill-rule="evenodd" clip-rule="evenodd" fill="none" stroke="#245378" stroke-miterlimit="10" d="M21.5,0.5
	c11.599,0,21,9.402,21,21c0,11.597-9.401,21-21,21c-11.598,0-21-9.403-21-21C0.5,9.902,9.902,0.5,21.5,0.5z"/>
</svg>
