<!DOCTYPE svg PUBLIC "-//W3C//DTD SVG 1.1//EN" "http://www.w3.org/Graphics/SVG/1.1/DTD/svg11.dtd" [
	<!ENTITY ns_flows "http://ns.adobe.com/Flows/1.0/">
]><svg xmlns="http://www.w3.org/2000/svg" width="15" height="15" viewBox="0 0 15 15"><path fill="#C3C3C2" d="M14.854 13.561c-.096-.064-1.837-1.209-4.428-1.77.95-1.209 1.561-2.83 1.819-3.91.36-1.498.221-4.426-1.214-6.251-.837-1.067-2.01-1.63-3.391-1.63s-2.554.563-3.392 1.63c-1.435 1.825-1.574 4.754-1.215 6.251.26 1.08.869 2.701 1.819 3.91-2.59.561-4.331 1.705-4.427 1.77-.351.232-.507.67-.385 1.072.122.404.493.68.914.68h13.37c.42 0 .792-.275.913-.68.123-.402-.032-.84-.383-1.072zm-5.177-2.363l-.156.197c-1.139 1.313-2.623 1.313-3.762 0l-.156-.197c-1.33-1.689-1.989-3.922-1.705-6.054.26-2.048 1.432-4.187 3.742-4.187 2.312 0 3.482 2.139 3.743 4.187.282 2.132-.375 4.364-1.706 6.054zm-8.722 3.16c.066-.045 1.684-1.107 4.1-1.631l1.187-.258c.423.279.888.451 1.398.451.512 0 .977-.172 1.399-.451l1.187.258c2.396.518 4.009 1.57 4.1 1.631h-13.371z"/></svg>