<!DOCTYPE svg PUBLIC "-//W3C//DTD SVG 1.1//EN" "http://www.w3.org/Graphics/SVG/1.1/DTD/svg11.dtd" [
	<!ENTITY ns_flows "http://ns.adobe.com/Flows/1.0/">
]><svg xmlns="http://www.w3.org/2000/svg" width="2151" height="240" viewBox="-771.764 0 2151 240" enable-background="new -771.764 0 2151 240"><path fill="#B0AEAF" d="M1.378 240.333l66.359-70.443.199-.171c10.396-14.081 28.84-24.846 50.711-29.35h.397c2.889-.595 6.091-1.076 9.773-1.586l2.408-.285c.595-.113 1.076-.113 1.7-.113-20.568 5.299-37.936 15.866-48.02 29.577l-68.241 72.371h1.39l67.445-71.52.199-.171c10.793-14.676 29.944-25.753 52.609-30.455h.395l.681-.085 2.805-.114c3.087 0 6.289.114 9.49.285.199 0 .482 0 .681.111l.707.113c3.287.285 5.78.596 8.074.88h.398c18.074 2.805 34.647 9.773 46.631 19.574l94.038 81.381h1.473l-93.923-81.182-.907-.792-.198-.199h-.085c-12.098-9.887-28.756-16.886-47.028-19.662h-.398c-2.294-.396-4.787-.706-8.158-.905-.198 0-.51 0-.709-.114l-.793-.085c-2.096-.196-4.193-.196-6.289-.311 1.105-.199 2.295-.284 3.484-.481l2.493-.313c4.192-.396 7.876-.596 11.276-.596 3.2 0 6.486.086 9.773.313.312 0 .51 0 .821.085l.794.111c3.399.285 5.977.596 8.386.994h.481c18.782 2.888 35.923 10.082 48.303 20.255l95.678 82.881h1.563l-95.541-82.683-.907-.907-.198-.197h-.085c-12.578-10.286-29.831-17.452-48.699-20.343h-.511c-2.379-.424-4.986-.706-8.47-1.02-.198 0-.51 0-.709-.085l-.793-.111c-3.4-.284-6.687-.398-9.887-.284-3.485 0-7.168.198-11.36.595l-2.493.284c-3.712.425-6.886.906-9.69 1.501-2.493.114-5.099.311-7.875.51l-2.408.282c-3.796.51-6.97 1.021-9.888 1.614h-.396c-22.04 4.591-40.71 15.356-51.193 29.606l-67.141 71.24h1.378zM449.189 240.333l202.524-181.584c.113-.199.34-.312.566-.397.17-.198.34-.312.453-.51.34-.283.51-.481.793-.68.34-.198.511-.51.794-.708l1.359-1.19c.963-.906 2.039-1.898 3.173-2.805l.114-.084c.169-.114.34-.312.452-.397.341-.227.51-.424.681-.624 2.833-2.294 5.893-4.589 9.122-6.884.283-.198.624-.397.907-.68l1.188-.906c8.5-5.695 17.849-10.794 28.048-15.27.057 0 .17-.114.284-.114l.339-.085c4.419-2.01 9.406-3.881 14.619-5.694.679-.283 1.473-.481 2.21-.68.51-.227.962-.312 1.529-.51 3.966-1.303 8.159-2.607 12.578-3.796l5.043-1.304c3.796-.877 7.763-1.784 12.296-2.577l.566-.114 5.099-.991c3.91-.595 8.16-1.19 12.977-1.813.623-.084 1.19-.198 1.869-.198.736-.085 1.474-.198 2.153-.283-3.91 1.105-7.706 2.181-11.332 3.4-.453.198-.963.283-1.474.481-.793.198-1.586.51-2.266.793-5.439 1.898-10.596 3.91-15.3 5.893-.112 0-.226.114-.281.114l-.284.084c-10.596 4.59-20.397 10-29.124 15.865-.453.312-.907.624-1.359.907-.284.198-.567.51-.907.708-3.398 2.38-6.572 4.788-9.405 7.168-.227.198-.566.424-.736.51l-.793.595-.171.198c-1.134.907-2.153 1.898-3.173 2.805-.34.396-.85.793-1.246 1.19-.341.198-.51.51-.794.708-.34.283-.623.481-.906.793-.113.085-.339.312-.51.397-.17.198-.396.312-.624.51l-209.4 187.76h1.583l208.613-187.082.565-.481c.17-.198.34-.312.454-.51.34-.283.623-.51.906-.793.339-.198.566-.51.793-.709l1.303-1.189c1.077-.992 2.21-2.012 3.286-2.89l.114-.113.623-.397c.283-.198.453-.397.793-.595 2.834-2.379 6.063-4.788 9.463-7.082l.907-.709 1.188-.878c8.783-5.893 18.585-11.19 29.011-15.779l.341-.085.283-.113c4.702-1.983 9.801-3.995 15.127-5.893.851-.283 1.531-.481 2.324-.793l1.529-.51c4.08-1.388 8.499-2.692 13.032-3.881 1.529-.397 2.946-.708 4.42-1.106 4.872-.396 9.462-.594 13.938-.793 5.553-.084 11.218-.084 17.281.114 1.699.085 3.343.198 4.986.283.85.113 1.699.113 2.549.198l2.267.114c2.267.084 4.59.283 6.8.481 3.456.312 6.97.793 10.256 1.303.623.114 1.303.199 1.869.199l3.74.51c3.684.595 7.593 1.303 12.125 2.295.454.084.793.198 1.359.283l1.588.311c4.646 1.105 9.291 2.183 13.541 3.485l.793.198c14.223 4.107 27.368 9.377 39.323 15.865l.17.114h.113l2.38 1.303c.566.284 1.02.595 1.53.878.962.51 1.869 1.105 2.889 1.615l364.023 202.833h2.034l-365.488-203.627c-.85-.624-1.813-1.105-2.833-1.615-.51-.283-1.02-.595-1.529-.907l-2.664-1.474h-.112c-12.012-6.403-25.157-11.785-39.323-15.78l-.793-.198c-4.306-1.19-8.896-2.38-13.598-3.485-.567-.113-1.077-.198-1.7-.312l-1.134-.284c-4.76-1.02-8.612-1.699-12.352-2.294-1.133-.199-2.494-.425-3.626-.51-.624-.114-1.359-.199-1.927-.199-3.399-.51-6.8-.991-10.312-1.303-2.267-.198-4.533-.397-6.857-.481l-2.322-.114c-.794-.085-1.7-.085-2.493-.198-1.587-.114-3.287-.199-4.986-.312-6.063-.198-11.785-.198-17.226-.085-2.605.085-5.212.198-7.932.283 2.437-.481 4.929-.991 7.479-1.474l.34-.112 5.326-.992c4.079-.708 8.441-1.303 13.428-1.897.624-.114 1.304-.199 1.871-.199 1.246-.198 2.492-.312 3.853-.396 6.969-.709 13.372-1.105 19.491-1.219 5.723-.085 11.615-.085 17.904.114l5.214.311c.905.085 1.699.085 2.605.199l2.38.084c2.267.114 4.76.312 7.025.511 3.626.396 7.253.877 10.709 1.303.736.084 1.304.198 1.983.284 1.304.198 2.606.312 3.854.51 3.739.595 7.705 1.388 12.636 2.379l1.303.312c.566.085 1.076.198 1.699.397 4.873 1.105 9.575 2.295 14.052 3.598l.793.198c14.677 4.193 28.331 9.774 40.74 16.375l.169.085h.114l2.379 1.388 1.587.907 3.061 1.7 374.263 208.526h2.047l-375.97-209.518-2.946-1.7c-.51-.312-1.133-.595-1.586-.906l-2.833-1.587h-.115c-12.352-6.686-26.12-12.182-40.682-16.375l-.794-.198c-4.419-1.304-9.179-2.493-14.052-3.598-.623-.085-1.246-.199-1.699-.397l-1.36-.283c-4.759-1.02-8.839-1.813-12.636-2.408-1.303-.198-2.605-.396-3.909-.51l-1.982-.283c-3.514-.51-7.083-.992-10.71-1.303-2.379-.199-4.759-.397-7.025-.511l-2.437-.084c-.85-.114-1.7-.114-2.55-.199-1.7-.113-3.4-.311-5.213-.311-6.402-.199-12.182-.199-18.018-.085-6.119.198-12.636.595-19.605 1.19-1.303.113-2.492.311-3.796.51-.623.084-1.303.198-1.869.198-4.986.595-9.406 1.19-13.485 1.898-1.813.283-3.627.595-5.439.991l-.566.085c-4.59.907-8.783 1.814-12.806 2.72l-.964.283c-1.529.114-3.003.312-4.589.397-1.247.113-2.38.312-3.74.396-.566.114-1.133.199-1.869.199-4.816.595-9.066 1.105-12.977 1.813-1.698.284-3.398.595-5.212.992l-.566.084c-4.477.821-8.499 1.7-12.239 2.607l-5.099 1.303c-4.421 1.19-8.727 2.493-12.692 3.797-.51.198-1.02.283-1.36.481l-2.267.708c-5.155 1.786-10.142 3.684-14.731 5.695l-.34.085-.227.113c-10.199 4.476-19.718 9.576-28.217 15.27l-1.133.878c-.341.198-.624.425-.907.709-3.286 2.294-6.402 4.589-9.179 6.884-.227.198-.453.312-.736.51s-.511.397-.681.595l-.17.198c-1.021.907-2.153 1.786-3.06 2.692-.34.396-.793.793-1.247 1.189-.227.199-.51.51-.793.709-.34.312-.623.51-.907.793-.112.113-.339.312-.51.396-.169.199-.396.312-.51.511l-203.427 182.378h1.471z"/></svg>