<!DOCTYPE svg PUBLIC "-//W3C//DTD SVG 1.1//EN" "http://www.w3.org/Graphics/SVG/1.1/DTD/svg11.dtd" [
	<!ENTITY ns_flows "http://ns.adobe.com/Flows/1.0/">
]><svg xmlns="http://www.w3.org/2000/svg" width="15" height="15" viewBox="0 0 15 15"><path fill="#C3C3C2" d="M13.742 1.409h-2.03v-.94c0-.259-.21-.469-.469-.469s-.469.21-.469.469v.939h-2.81v-.939c0-.259-.21-.469-.469-.469s-.469.21-.469.469v.939h-2.81v-.939c0-.259-.21-.469-.469-.469-.258 0-.468.21-.468.469v.939h-2.03c-.69.001-1.249.561-1.249 1.253v11.113c0 .691.559 1.252 1.249 1.252h12.493c.689 0 1.249-.561 1.249-1.252v-11.113c0-.692-.559-1.252-1.249-1.252zm.313 12.365c0 .173-.141.313-.313.313h-12.493c-.173 0-.313-.141-.313-.313v-11.113c0-.173.14-.313.313-.313h2.03v.939c0 .259.21.47.468.47.259 0 .469-.21.469-.47v-.939h2.811v.939c0 .259.21.47.469.47s.469-.21.469-.47v-.939h2.811v.939c0 .259.21.47.469.47s.469-.21.469-.47v-.939h2.03c.172 0 .313.14.313.313v11.113zm-10.776-6.731h1.874v-1.408h-1.874v1.408zm0 2.348h1.874v-1.408h-1.874v1.408zm0 2.348h1.874v-1.408h-1.874v1.408zm3.28 0h1.874v-1.408h-1.874v1.408zm0-2.348h1.874v-1.408h-1.874v1.408zm0-2.348h1.874v-1.408h-1.874v1.408zm3.279 4.696h1.874v-1.408h-1.874v1.408zm0-2.348h1.874v-1.408h-1.874v1.408zm0-2.348h1.874v-1.408h-1.874v1.408z"/></svg>