<!DOCTYPE svg PUBLIC "-//W3C//DTD SVG 1.1//EN" "http://www.w3.org/Graphics/SVG/1.1/DTD/svg11.dtd" [
	<!ENTITY ns_flows "http://ns.adobe.com/Flows/1.0/">
]><svg xmlns="http://www.w3.org/2000/svg" width="43" height="43" viewBox="0 0 43 43"><path fill="#245378" d="M28.921 14.964l1.111-1.667-1.006-.581-.972 1.748-5.195-3c-.203-.117-1.226.122-1.394.414l-9.165 15.876c-.169.292-.018.695.187.813l6.81 3.932c.204.118.629.047.798-.245l9.192-15.923c.168-.293-.163-1.25-.366-1.367zm-13.862 12.972l-.92-.531c-.203-.117-.231-.449-.063-.742.169-.292.471-.434.674-.316l.92.531c.203.117.231.449.063.742-.169.291-.47.433-.674.316zm1.069-1.852l-.92-.532c-.203-.117-.231-.449-.063-.741.169-.293.471-.435.674-.316l.92.531c.203.117.231.449.063.741s-.47.434-.674.317zm1.069-1.853l-.92-.532c-.203-.117-.231-.449-.063-.741s.471-.435.674-.316l.92.531c.203.117.231.45.063.741-.169.293-.47.435-.674.317zm.071 4.98l-.92-.531c-.203-.117-.231-.449-.063-.742.169-.292.47-.434.674-.316l.92.531c.203.117.231.449.063.742-.17.292-.471.433-.674.316zm1.069-1.853l-.92-.531c-.203-.117-.231-.449-.063-.741.168-.293.47-.435.674-.316l.92.531c.203.117.231.449.063.741s-.471.435-.674.316zm1.069-1.852l-.92-.531c-.203-.117-.231-.449-.063-.741s.47-.435.673-.316l.921.531c.203.117.231.449.063.741-.169.292-.471.434-.674.316zm.071 4.98l-.92-.531c-.204-.118-.231-.45-.063-.742.168-.293.47-.434.673-.316l.921.531c.203.117.23.449.063.742-.17.291-.471.434-.674.316zm1.069-1.852l-.92-.531c-.204-.118-.231-.45-.063-.741.169-.293.471-.435.674-.317l.921.531c.203.118.231.45.063.742s-.472.433-.675.316zm1.069-1.853l-.92-.531c-.204-.117-.231-.449-.063-.741.169-.292.471-.435.674-.317l.921.532c.203.117.231.449.063.741-.17.293-.472.433-.675.316zm1.806-2.293c-.168.293.204.118 0 0l-6.062-3.499c-.203-.117-.168.292 0 0l4.5-7.793c.169-.292-.203-.118 0 0l6.062 3.5c-.083-.012.169-.292 0 0l-4.5 7.792z"/><path clip-rule="evenodd" stroke="#245378" stroke-miterlimit="10" d="M21.5.5c11.599 0 21 9.402 21 21 0 11.597-9.401 21-21 21-11.598 0-21-9.403-21-21 0-11.598 9.402-21 21-21z" fill="none"/></svg>